<?xml version="1.0" encoding="utf-8"?>
<!-- Generator: Adobe Illustrator 24.0.1, SVG Export Plug-In . SVG Version: 6.00 Build 0)  -->
<svg version="1.1" id="Layer_1" xmlns="http://www.w3.org/2000/svg" xmlns:xlink="http://www.w3.org/1999/xlink" x="0px" y="0px"
	 viewBox="0 0 190.49 203.21" style="enable-background:new 0 0 190.49 203.21;" xml:space="preserve">
<style type="text/css">
	.st0{fill:none;stroke:#0E423D;stroke-width:2;}
</style>
<path class="st0" d="M182.1,109.35c-1.23-0.91-3.04-1.36-5.44-1.36c-3.82,0-7.25,1.12-10.29,3.35c-3.88,2.88-7.18,7.02-9.9,12.42
	c-2.62,5.21-3.96,10.27-4.06,15.21c-4,3.73-6.52,5.61-7.52,5.61c-0.26,0-0.5-0.15-0.73-0.46c-0.23-0.31-0.34-0.69-0.34-1.14
	c0-2.36,1.71-9.29,5.13-20.77c2.1-7.02,3.15-11,3.15-11.94c0-0.78-0.01-1.47-0.56-1.92c0,0,0.13-0.03,0.12-0.03
	c0.35-0.08,0.51-0.19,0.78-0.47c0,0-0.18,0.11,1.22-1.5c0.25-0.29,0.08,0.13,0.86-1.84c0.53-1.34-0.02-1.97-0.28-2.44
	c-0.48-0.86-0.87-1.02-1.86-1.77c-1.34-1.02-2.31-1.19-3.84,0.07c-1.39,1.15-1.92,2.19-1.92,4.04c0,1.35,0.26,2.36,1.12,3.21
	c-1.86,0.02-3.03,0.89-5.66,2.37c-2.1,1.18-4.37,3.01-6.82,5.47c-0.02-1.43-0.8-2.7-2.35-3.81c-1.57-1.12-3.79-1.67-6.67-1.67
	c-1.28,0-2.48,0.14-3.62,0.39l0.8-0.16l-4.53-38.85c-0.04-0.78,0.37-0.98,1.15-1.02c0.36-0.02,0.84,0.01,1.44-0.02
	c3.66-0.2,6.25-2.71,7.4-5.05v13.45l29.52,6.42V52.03c0-3.42-4.5-10.08-9-10.08c-1.98,0-3.72,1.32-3.72,3.48
	c0,1.74,1.2,4.02,4.38,6.54c4.2,2.7,6.48,0.48,6.48,3.12v13.86l-25.74-5.76V47.23c0-6.48-5.94-11.82-11.28-11.82
	c-1.68,0-2.7,1.14-2.7,2.7c0,2.16,1.86,5.16,6.3,7.26c3.72,1.26,5.76,0.06,5.76,3.66V61.1c-0.56-0.56-1.48-0.88-2.9-0.8
	c-5.33,0.29-9.51,6.41-9.28,10.48l1.58,29c-6.33-5.9-13.33-6.49-13.65-13.44l-0.01-0.24c-0.21-3.89,4.04-9.71,7.14-12.41l-0.5-0.33
	c-3.42,2.09-6.91,5.59-8.72,9.61V49.58h-1.49c-0.4-1.95-1.35-3.94-3.01-5.86c-6.18-6.6-10.2-7.02-14.64-14.4h-0.66v39.12
	c0,0.78-0.42,0.96-1.2,0.96c-0.36,0-0.84-0.06-1.44-0.06c-2.76,0-4.98,1.34-6.46,2.97V61.56l-29.52,6.42v29.7
	c0,3.6-2.04,2.4-5.76,3.66c-4.44,2.1-6.3,5.1-6.3,7.26c0,1.56,1.02,2.7,2.7,2.7c5.34,0,11.28-5.34,11.28-11.82V83.52l25.74-5.76
	v13.86c0,2.64-2.28,0.42-6.48,3.12c-3.18,2.52-4.38,4.8-4.38,6.54c0,2.16,1.74,3.48,3.72,3.48c4.5,0,9-6.66,9-10.08V78.96
	c0.41,0.1,0.87,0.16,1.42,0.16c5.34,0,9.84-5.88,9.84-9.96V40.12c6,6.24,12.96,7.2,12.9,14.16v0.24c0,3.9-4.56,9.48-7.8,12
	l0.48,0.36c3.79-2.05,7.76-5.72,9.66-10.03v31.72c0,1.2-0.48,1.38-1.44,1.38c-1.2,0-2.46,0-3.54,0.3c-3.42,1.32-5.88,4.5-5.88,6.78
	c0,1.56,1.08,2.7,3.72,2.7c3.94,0,7.76-3.78,9.06-7.26c0.59,1.5,1.53,2.99,2.9,4.42c6.13,5.87,10.17,8.35,14.64,14.52
	c-1.13,0.55-2.17,1.27-3.12,2.14c-2.56,2.38-3.83,5.15-3.83,8.31c0,3.46,1.68,7.06,5.05,10.81c2.43,2.68,3.99,4.61,4.68,5.77
	c0.7,1.16,1.04,2.33,1.04,3.49c0,1.2-0.37,2.4-1.11,3.61c-0.74,1.21-1.77,2.12-3.1,2.71c-1.32,0.6-2.85,0.9-4.59,0.9
	c-1.51,0-2.71-0.37-3.58-1.12c-0.9-0.74-1.35-1.65-1.35-2.72c0-0.29,0.01-0.65,0.03-1.07c0.04-0.52,0.06-0.94,0.06-1.26
	c0-0.81-0.32-1.51-0.97-2.11c-0.65-0.6-1.42-0.9-2.33-0.9c-0.83,0-1.55,0.25-2.18,0.73l-0.33-0.37c-2.98,3.01-5,4.89-6.07,5.63
	c-0.74,0.49-1.39,0.73-1.94,0.73c-0.36,0-0.68-0.16-0.97-0.49c-0.29-0.32-0.44-0.79-0.44-1.41c0-1.36,1.34-6.97,4.03-16.82
	l4.56-16.96h-6.91l-5.29,19.95c-1.03,3.82-3.22,7.22-6.55,10.22c-3.33,2.99-5.9,4.49-7.71,4.49c-0.52,0-0.99-0.24-1.43-0.73
	c-0.44-0.49-0.65-1.07-0.65-1.75c0-1.1,1.04-5.59,3.11-13.46c2.33-8.75,3.49-14.24,3.49-16.47c0-1.2-0.24-2.08-0.73-2.65
	c-0.49-0.57-1.12-0.85-1.89-0.85c-1.39,0-3.23,0.61-5.51,1.82c-1.92,1.02-4.59,3.01-7.97,5.93c0.03-0.3,0.07-0.63,0.07-0.9
	c0-1.62-0.37-2.81-1.12-3.59c-0.74-0.78-1.8-1.16-3.16-1.16c-1.52,0-3.64,0.8-6.36,2.4c-2.72,1.6-5.93,4.33-9.62,8.18
	c0.97-3.27,1.45-5.58,1.45-6.94c0-1.26-0.28-2.18-0.82-2.77c-0.55-0.58-1.36-0.87-2.42-0.87c-4.1,0-10.02,3.95-17.76,11.84
	c0.29-1.58,0.81-3.74,1.55-6.45c0.52-1.84,0.78-3.09,0.78-3.74c0-0.52-0.17-0.92-0.51-1.21c-0.34-0.29-0.85-0.44-1.54-0.44
	c-1.66,0-3.93,0.76-6.82,2.28c-2.89,1.52-5.93,3.88-9.13,7.09l1.46,1.94c3.88-3.69,6.45-5.53,7.72-5.53c0.58,0,0.87,0.37,0.87,1.12
	c0,0.58-0.81,4.22-2.43,10.92l-5.48,23.15h6.97l3.73-16.4c1-4.4,2.2-7.67,3.61-9.83c1.4-2.15,3.71-4.37,6.9-6.67
	c1.84-1.36,3.2-2.04,4.07-2.04c0.48,0,0.86,0.14,1.11,0.41c0.26,0.27,0.39,0.67,0.39,1.19c0,0.32-0.26,1.55-0.78,3.69l-7.23,29.65
	h6.89c1.07-5.05,2.69-11.57,4.85-19.56c0.97-3.66,2.1-6.33,3.4-8.01c1.88-2.43,4.21-4.48,6.99-6.16c1.36-0.81,2.44-1.21,3.25-1.21
	c0.97,0,1.46,0.55,1.46,1.65c0,1.16-0.83,4.48-2.48,9.95c-2.2,7.28-3.53,11.96-3.98,14.05c-0.45,2.09-0.68,3.91-0.68,5.46
	c0,1.68,0.37,3,1.12,3.96c0.74,0.95,1.6,1.43,2.57,1.43c1.29,0,2.88-0.55,4.76-1.65c0.97-0.58,2.75-2.04,5.34-4.37
	c1.22-1.12,2.16-1.96,2.88-2.58c-0.05,0.58-0.09,1.15-0.09,1.7c0,1.62,0.32,2.8,0.97,3.55c0.65,0.74,1.54,1.12,2.67,1.12
	c2.07,0,4.51-0.83,7.32-2.47c4.23-2.49,7.79-5.39,10.67-8.69c-0.7,2.81-1.05,5.06-1.05,6.75c0,1.46,0.36,2.58,1.09,3.37
	c0.73,0.79,1.61,1.19,2.64,1.19c2.63,0,6.53-2.5,11.67-7.45c0.22,1.89,1.1,3.53,2.72,4.88c1.88,1.57,4.74,2.35,8.59,2.35
	c4.59,0,8.35-1.28,11.26-3.85c2.91-2.57,4.37-5.57,4.37-8.99c0-3.42-1.8-7.04-5.39-10.86c-2.62-2.78-4.25-4.79-4.9-6.03
	c-0.65-1.24-0.97-2.53-0.97-3.85c0-1.52,0.51-2.79,1.53-3.8s2.19-1.53,3.52-1.53c1.55,0,3.12,1.05,4.71,3.15
	c0.84,1.1,1.49,1.79,1.94,2.06c0.45,0.28,0.99,0.41,1.6,0.41c0.77,0,1.44-0.23,2.03-0.67l1.47,1.14c2.85-2.78,4.68-4.43,5.51-4.95
	c0.83-0.52,1.56-0.78,2.21-0.78c0.58,0,0.87,0.32,0.87,0.97c0,0.58-0.11,1.25-0.34,1.99c-4.85,15.72-7.28,25.61-7.28,29.65
	c0,1.26,0.33,2.25,0.99,2.96c0.66,0.71,1.56,1.07,2.69,1.07c1.29,0,2.96-0.58,5-1.75c1.7-0.97,4.23-3,7.59-6.05
	c0.28,1.83,0.83,3.44,1.68,4.79c1.28,2.01,3.32,3.01,6.14,3.01c5.31,0,11.81-3.03,19.51-9.08l-1.02-2.81
	c-5.24,4.4-9.75,6.6-13.54,6.6c-1.59,0-2.81-0.65-3.69-1.94c-1.2-1.68-1.8-4.05-1.8-7.12c0-4.17,0.71-8.32,2.14-12.45
	c1.42-4.13,2.92-6.92,4.49-8.36c1.57-1.44,3.15-2.16,4.73-2.16c1.23,0,2.77,0.55,4.61,1.65c1.78,1.04,3.23,1.55,4.37,1.55
	c1.16,0,2.07-0.32,2.72-0.95c0.65-0.63,0.97-1.45,0.97-2.45C183.95,111.35,183.33,110.25,182.1,109.35z M130.82,69.37l25.74,6.06v3
	l-25.74-5.7V69.37z M71.8,71.28l-25.74,6.06v-3.36l25.74-5.7V71.28z M70.57,131.1c-1.72,6.16-2.78,10.25-3.2,12.3
	c-0.05,0.26-0.08,0.51-0.12,0.76l-0.87-0.95c-2.01,2.01-3.96,3.69-5.87,5.05c-0.58,0.39-1.18,0.58-1.8,0.58
	c-0.91,0-1.36-0.55-1.36-1.65c0-1.62,1.28-6.62,3.83-15c1.9-6.32,3.05-10.23,3.46-11.8l0.68,0.54c2.43-2.3,4.14-3.74,5.14-4.34
	c1-0.6,1.8-0.9,2.38-0.9c0.65,0,0.97,0.45,0.97,1.36C73.82,118.61,72.73,123.29,70.57,131.1z"/>
</svg>
