<?xml version="1.0" encoding="utf-8"?>
<!-- Generator: Adobe Illustrator 24.0.1, SVG Export Plug-In . SVG Version: 6.00 Build 0)  -->
<svg version="1.1" id="Layer_2" xmlns="http://www.w3.org/2000/svg" xmlns:xlink="http://www.w3.org/1999/xlink" x="0px" y="0px"
	 viewBox="0 0 190.49 203.21" style="enable-background:new 0 0 190.49 203.21;" xml:space="preserve">
<style type="text/css">
	.st0{fill:none;stroke:#10423D;stroke-width:1.7952;}
</style>
<path class="st0" d="M164.51,155.35c-0.65,0-1.22,0.24-1.7,0.73c-0.49,0.49-0.73,1.04-0.73,1.66c0,0.49,0.15,1.08,0.45,1.78
	c0.27,0.65,0.41,1.16,0.41,1.54c0,0.59-0.43,1.18-1.3,1.76c-0.87,0.58-1.96,0.87-3.29,0.87c-2.27,0-4.35-0.89-6.25-2.68
	c-1.92-1.79-4-5.39-6.25-10.8c-1.89-4.55-3.44-7.79-4.64-9.73c-1.2-1.94-2.43-3.45-3.67-4.55c-1.24-1.1-2.91-2.11-4.99-3.03
	c6.17-0.16,10.75-1.38,13.75-3.65c3-2.27,4.5-4.85,4.5-7.75c0-1.54-0.47-2.82-1.4-3.83c-0.93-1.01-2.08-1.52-3.43-1.52
	c-1.92,0-3.94,0.59-6.05,1.78c-2.79,1.59-5.48,3.87-8.08,6.81l2.91-12.94c1.05-4.83,1.87-8.01,2.45-9.54
	c0.58-1.53,1.24-2.6,1.99-3.19c0.74-0.6,1.53-0.9,2.37-0.9c0.59,0,1.28,0.08,2.07,0.24c2.4,0.41,4.2,0.61,5.39,0.61
	c0.95,0,1.73-0.27,2.35-0.81c0.62-0.54,0.93-1.19,0.93-1.95c0-0.89-0.34-1.61-1.03-2.15c-0.69-0.54-1.74-0.81-3.14-0.81
	c-1.49,0-3.21,0.35-5.17,1.04c-1.96,0.69-3.79,1.69-5.48,2.99c-0.17,0.13-0.32,0.26-0.48,0.4l10.32-19.47
	c37.48-24.54,13.48-53.39,13.48-53.39l-25.89,47.73l-3.25,5.57c0.42-1.71,0.73-3.45,0.91-5.19c2.52-25.25-21.67-48.95-46.34-44.65
	c-19.09,3.33-34.77,18.7-32.69,45.48c0.27,1.72,0.63,3.38,1.07,4.99L43.78,61.6c7.16-8.36,1.31-15.89,1.31-15.89
	c-20.45-25.34-30.3-17.56-30.3-17.56C3.23,39.88,12.4,62.09,12.4,62.09c5.08,11.32,18.8,8.16,18.8,8.16l27.48,44.56
	c0.86,1.95,1.89,2.83,2.85,3.18c-0.62,0.33-1.23,0.71-1.82,1.14c-3.24,2.41-6,5.87-8.27,10.38c-2.27,4.52-3.41,8.91-3.41,13.18
	c0,2.57,0.53,4.69,1.6,6.37c1.07,1.68,2.78,2.51,5.13,2.51c4.29,0,9.52-2.37,15.67-7.1c0.42,1.7,1.17,3.13,2.27,4.3
	c1.77,1.89,4.1,2.84,7,2.84c4.71,0,9.17-2.39,13.39-7.16c1.31-1.48,2.39-3.02,3.29-4.62c-0.02,0.4-0.04,0.79-0.04,1.19
	c0,3.27,0.89,5.86,2.66,7.75c1.77,1.89,4.1,2.84,7,2.84c4.71,0,9.17-2.39,13.39-7.16c1.22-1.38,2.25-2.83,3.12-4.31l-2.47,10.3h6.04
	l3.95-17.52c1.46,1.22,2.6,2.45,3.44,3.7c1.08,1.6,2.29,3.99,3.64,7.19c2.89,6.74,4.92,11.06,6.08,12.95
	c2.03,3.28,4.2,5.66,6.53,7.15c2.33,1.49,4.96,2.23,7.91,2.23c2.87,0,5.19-0.76,6.98-2.27c1.78-1.52,2.68-3.24,2.68-5.19
	c0-1-0.27-1.8-0.81-2.41C165.91,155.65,165.26,155.35,164.51,155.35z M88.91,144.24c-1.87,2.81-3.93,4.22-6.21,4.22
	c-1.62,0-2.92-0.74-3.89-2.23c-1.33-2.03-1.99-4.8-1.99-8.32c0-5.79,1.07-10.32,3.22-13.61s4.37-4.93,6.67-4.93
	c1.65,0,3.02,0.87,4.12,2.6c1.1,1.73,1.64,4.62,1.64,8.68C92.48,136.06,91.29,140.59,88.91,144.24z M115.19,144.24
	c-1.87,2.81-3.93,4.22-6.21,4.22c-1.62,0-2.92-0.74-3.89-2.23c-1.33-2.03-1.99-4.8-1.99-8.32c0-5.79,1.07-10.32,3.22-13.61
	c2.15-3.29,4.37-4.93,6.67-4.93c1.65,0,3.02,0.87,4.12,2.6c1.1,1.73,1.64,4.62,1.64,8.68C118.76,136.06,117.57,140.59,115.19,144.24
	z M125.66,126.93c-0.19-3.11-1.06-5.59-2.6-7.43c-1.76-2.11-3.96-3.16-6.61-3.16c-6.08,0-11.17,2.99-15.25,8.96
	c-0.67,0.99-1.25,2.01-1.79,3.04c0-0.01,0-0.03,0-0.04c0-3.76-0.88-6.69-2.64-8.8c-1.76-2.11-3.96-3.16-6.61-3.16
	c-6.08,0-11.17,2.99-15.25,8.96c-3.24,4.81-4.87,10.06-4.87,15.74c0,0.25,0.02,0.48,0.03,0.72c-4.32,3.6-8.04,5.4-11.17,5.4
	c-1.33,0-2.35-0.54-3.08-1.62c-1-1.4-1.5-3.39-1.5-5.95c0-3.48,0.59-6.95,1.78-10.41c1.19-3.46,2.44-5.78,3.75-6.99
	c1.31-1.2,2.63-1.8,3.95-1.8c1.03,0,2.31,0.46,3.85,1.38c1.49,0.87,2.7,1.3,3.65,1.3c0.97,0,1.73-0.26,2.27-0.79
	c0.54-0.53,0.81-1.21,0.81-2.05c0-1.08-0.51-2-1.54-2.76c-1.03-0.76-2.54-1.14-4.54-1.14c-0.68,0-1.34,0.05-1.99,0.14l4.73-3.09
	c4.15-2.78-0.81-9.71-0.81-9.71l-2.34-3.72c7.94,6.62,18.23,9.9,28.84,8.87c9.2-0.89,17.32-5.06,23.51-11.05l-2.79,4.78
	c-3.12,4.55,0,6.82,0,6.82l5.03,2.49c3.5,1.75,5.75,0.57,6.97-0.6C128.61,114.58,127.33,119.8,125.66,126.93z M130.39,131.22
	l0.56-2.87c5.24-5.66,9.12-8.49,11.66-8.49c0.78,0,1.45,0.31,2,0.93c0.55,0.62,0.83,1.45,0.83,2.47c0,1.43-0.48,2.76-1.43,3.98
	c-0.96,1.22-2.56,2.19-4.8,2.92C136.96,130.89,134.02,131.24,130.39,131.22z"/>
</svg>
