<?xml version="1.0" encoding="utf-8"?>
<!-- Generator: Adobe Illustrator 24.0.1, SVG Export Plug-In . SVG Version: 6.00 Build 0)  -->
<svg version="1.1" id="Layer_3" xmlns="http://www.w3.org/2000/svg" xmlns:xlink="http://www.w3.org/1999/xlink" x="0px" y="0px"
	 viewBox="0 0 190.49 203.21" style="enable-background:new 0 0 190.49 203.21;" xml:space="preserve">
<style type="text/css">
	.st0{fill:none;stroke:#10423D;stroke-width:3;}
</style>
<path class="st0" d="M168.81,35.18c0,0-33.6,11.35-76.35,11.23l14.94-9.8L91.5,26.18V46.4c-20.78-0.14-43.66-3.02-65.87-11.22v91.68
	c0,0,60.44-38.76,136.28-3.4c-0.21-0.01-0.42-0.04-0.64-0.04c-5.27,0-9.81,3.13-13.6,9.39c-3.11,5.06-4.77,10.15-5.02,15.26
	l-0.32-0.31c-3.43,3.22-5.56,4.83-6.39,4.83c-0.21,0-0.4-0.12-0.58-0.37c-0.18-0.25-0.27-0.55-0.27-0.92c0-1.9,1.37-7.46,4.12-16.68
	c1.68-5.64,2.53-8.83,2.53-9.59c0-0.48,0.12-0.74-0.14-1.07c0.54-0.15,1.03,0,1.63-0.52c0.64-0.56,1.22-0.89,1.54-2.48
	c0.23-1.15,0.24-2.52-0.25-3.39c-0.49-0.87-1.55-1.48-2.18-1.65c-0.83-0.23-2.09-0.37-3.25,0.58c-1.16,0.95-1.43,1.58-1.68,2.73
	c-0.2,0.92,0.39,2.62,0.91,3.31c0.16,0.21,0.01,0.26,0.14,0.49c-0.02,0,0.22-0.01,0.22-0.01c-1.51,0-2.84,0.59-4.98,1.8
	c-1.42,0.8-2.94,1.97-4.55,3.49c-0.02-1.65-0.27-2.84-0.77-3.55c-0.52-0.74-1.21-1.11-2.07-1.11c-0.65,0-1.21,0.25-1.68,0.76
	s-0.7,1.1-0.7,1.77c0,0.62,0.32,1.59,0.97,2.88c0.6,1.22,0.9,2.23,0.9,3.04c0,2.75-1.2,6.04-3.59,9.84
	c-2.39,3.81-6.46,7.89-12.2,12.26c-0.99-4.75-1.48-8.25-1.48-10.48c0-2.42,0.38-4.85,1.15-7.29c0.77-2.44,2.15-5.26,4.15-8.46
	c1.58-0.65,2.38-1.38,2.38-2.18c0-0.39-0.17-0.75-0.51-1.09c-0.34-0.34-0.71-0.51-1.13-0.51c-0.44,0-1.49,0.36-3.16,1.09
	c-4.11-0.05-7.4,0.27-9.9,0.97c-2.13,0.6-3.72,1.4-4.77,2.39c-0.32-0.61-0.69-1.17-1.11-1.68c-1.69-2.03-3.81-3.04-6.35-3.04
	c-5.85,0-10.73,2.87-14.65,8.61c-3.12,4.62-4.68,9.67-4.68,15.12c0,0.75,0.05,1.45,0.15,2.13c-1.26,1.19-2.49,2.22-3.7,3.08
	c-0.47,0.31-0.95,0.47-1.44,0.47c-0.73,0-1.09-0.44-1.09-1.32c0-1.3,1.03-5.31,3.08-12.04c1.64-5.43,2.58-8.68,2.85-9.74
	c0.26-1.07,0.39-1.99,0.39-2.77c0-1.3-0.3-2.26-0.9-2.88c-0.6-0.62-1.44-0.94-2.53-0.94c-1.22,0-2.93,0.64-5.11,1.93
	c-2.18,1.29-4.76,3.48-7.72,6.57c0.78-2.62,1.17-4.48,1.17-5.57c0-1.01-0.22-1.75-0.66-2.22c-0.44-0.47-1.09-0.7-1.94-0.7
	c-3.29,0-8.05,3.17-14.26,9.51c0.23-1.27,0.65-3,1.25-5.18c0.42-1.48,0.62-2.48,0.62-3c0-0.42-0.14-0.74-0.41-0.97
	c-0.27-0.23-0.68-0.35-1.23-0.35c-1.33,0-3.16,0.61-5.48,1.83c-2.32,1.22-4.76,3.12-7.33,5.69l1.17,1.56
	c3.12-2.96,5.18-4.44,6.2-4.44c0.47,0,0.7,0.3,0.7,0.9c0,0.47-0.65,3.39-1.95,8.77l-4.4,18.59h5.6l3-13.17
	c0.8-3.53,1.77-6.16,2.9-7.89c1.13-1.73,2.98-3.51,5.54-5.36c1.48-1.09,2.57-1.64,3.27-1.64c0.39,0,0.69,0.11,0.9,0.33
	c0.21,0.22,0.31,0.54,0.31,0.96c0,0.26-0.21,1.25-0.62,2.96l-5.81,23.81h5.53c0.86-4.05,2.16-9.29,3.9-15.71
	c0.78-2.94,1.69-5.08,2.73-6.43c1.51-1.95,3.38-3.6,5.61-4.95c1.09-0.65,1.96-0.97,2.61-0.97c0.78,0,1.17,0.44,1.17,1.32
	c0,0.94-0.66,3.6-1.99,7.99c-1.77,5.85-2.83,9.61-3.2,11.28c-0.36,1.68-0.55,3.14-0.55,4.38c0,1.35,0.3,2.41,0.9,3.18
	c0.6,0.77,1.29,1.15,2.07,1.15c1.04,0,2.31-0.44,3.82-1.32c0.78-0.47,2.21-1.64,4.29-3.51c0.47-0.43,0.88-0.8,1.25-1.13
	c0.43,1.27,1.07,2.37,1.94,3.3c1.7,1.82,3.94,2.73,6.72,2.73c4.52,0,8.81-2.29,12.86-6.88c3.87-4.38,5.87-9.31,6.05-14.77
	c0.11-0.07,0.23-0.11,0.33-0.2c0.35-0.32,0.53-0.69,0.53-1.11c0-0.42-0.12-0.92-0.35-1.52c-0.36-0.86-0.55-1.47-0.55-1.83
	c0-0.91,0.7-1.7,2.1-2.38c1.97-0.94,5.25-1.44,9.82-1.52c-2.55,1.92-4.47,4.19-5.77,6.8c-1.3,2.61-1.95,5.31-1.95,8.09
	c0,2.1,0.53,5.85,1.6,11.22c0.55,2.68,0.91,4.62,1.09,5.85c7.38-3.48,13.47-8.44,18.28-14.89c3.18-4.25,5.05-8.6,5.65-13.04
	c1.94-1.87,3.21-3.01,3.81-3.38c0.66-0.42,1.25-0.62,1.77-0.62c0.47,0,0.7,0.26,0.7,0.78c0,0.47-0.09,1-0.27,1.6
	c-3.9,12.63-5.85,20.56-5.85,23.81c0,1.01,0.27,1.81,0.8,2.38c0.53,0.57,1.25,0.86,2.16,0.86c1.04,0,2.38-0.47,4.01-1.4
	c1.44-0.82,3.63-2.59,6.56-5.28c0.1,2.25,0.58,3.93,1.44,5.02c0.97,1.25,2.38,1.87,4.23,1.87c4.55,0,10-3.03,16.37-9.08l-1.29-1.71
	c-3.3,2.47-5.81,4.11-7.52,4.91c-1.27,0.6-2.44,0.9-3.51,0.9c-1.12,0-1.97-0.36-2.55-1.09c-0.58-0.73-0.88-2.01-0.88-3.86
	c0-1.27,0.12-2.61,0.35-4.01c4.94-2.23,8.16-3.78,9.66-4.64c3.01-1.77,5.11-3.47,6.27-5.11c1.17-1.64,1.75-3.3,1.75-4.99
	c0-1.26-0.31-2.3-0.9-3.14c0.92,0.46,1.83,0.91,2.76,1.39V35.18z M88.07,150.76c-1.79,2.7-3.78,4.05-5.96,4.05
	c-1.56,0-2.81-0.71-3.74-2.14c-1.27-1.95-1.91-4.61-1.91-7.99c0-5.56,1.03-9.92,3.1-13.08c2.07-3.16,4.2-4.74,6.41-4.74
	c1.58,0,2.9,0.83,3.96,2.49c1.05,1.66,1.58,4.44,1.58,8.34C91.5,142.9,90.36,147.25,88.07,150.76z M159.16,134.8
	c-2.1,2.16-5.25,4.17-9.43,6.04c0.49-2.96,1.34-5.87,2.53-8.73c0.83-1.95,1.86-3.4,3.08-4.36c0.91-0.73,1.84-1.09,2.81-1.09
	c0.94,0,1.7,0.33,2.28,0.99c0.58,0.66,0.88,1.55,0.88,2.67C161.3,131.8,160.59,133.3,159.16,134.8z"/>
</svg>
